# xmcd CD database file
#
# Track frame offsets:
#	150
#	15018
#	28535
#	45290
#	68658
#	81438
#	101865
#	117835
#	135020
#	140470
#	151340
#	167508
#	174570
#	189820
#
# Disc length: 2755 seconds
#
# Revision: 4
# Processed by: cddbd v1.5.2PL0 Copyright (c) Steve Scherf et al.
# Submitted via: CDex 1.51
#
DISCID=9b0ac10e
DTITLE=David Lee Roth - Diamond Dave
DYEAR=2003
DGENRE=Rock
TTITLE0=You Got The Blues, Not Me...
TTITLE1=Made Up My Mind
TTITLE2=Stay While The Night Is Still Young
TTITLE3=Shoo Bop
TTITLE4=She's Looking Good
TTITLE5=Soul Kitchen
TTITLE6=If 6 Was 9
TTITLE7=That Beatles Tune (Tomorrow Never Knows)
TTITLE8=Medicine Man
TTITLE9=Let It All Hang Out
TTITLE10=Thug Pop
TTITLE11=Act One
TTITLE12=Ice Cream Man
TTITLE13=Bad Habits
EXTD=YEAR: 2003
EXTT0=
EXTT1=
EXTT2=
EXTT3=
EXTT4=
EXTT5=
EXTT6=
EXTT7=
EXTT8=
EXTT9=
EXTT10=
EXTT11=
EXTT12=
EXTT13=
PLAYORDER=
